<svg xmlns="http://www.w3.org/2000/svg" width="277" height="278" viewBox="0 0 277 278" version="1.1"><path d="" stroke="none" fill="#d8bc8c" fill-rule="evenodd"/><path d="M 121.521 1.046 C 92.477 5.609, 67.164 18.003, 45.427 38.304 C 13.742 67.897, -1.923 106.222, 1.101 146.746 C 5.953 211.754, 52.188 264.366, 114.442 275.718 C 126.406 277.900, 150.358 277.893, 162.500 275.705 C 206.875 267.708, 242.474 241.852, 262.051 203.400 C 280.225 167.704, 282.116 124.139, 267.146 86.005 C 250.360 43.245, 211.666 11.634, 164.926 2.497 C 154.960 0.548, 129.999 -0.286, 121.521 1.046 M 135 69.638 C 119.959 72.473, 106.360 81.442, 98.152 93.940 C 95.732 97.625, 93.108 100.203, 90.373 101.585 C 88.103 102.732, 72.128 107.654, 54.873 112.523 C 26.870 120.425, 23.194 121.701, 20.647 124.404 C 19.078 126.069, 18.243 127.581, 18.792 127.764 C 19.590 128.030, 79.893 113.947, 95.272 109.903 C 98.623 109.022, 99.388 108.185, 102.115 102.412 C 108.344 89.229, 120.628 79.458, 134.730 76.469 C 148.574 73.536, 161.920 74.999, 173.829 80.758 C 179.761 83.626, 191.181 94.112, 194.509 99.746 C 195.546 101.501, 197.093 103.210, 197.947 103.542 C 201.303 104.850, 256.552 111.805, 257.357 111.021 C 259.574 108.861, 252.117 106.725, 230.842 103.423 C 218.554 101.516, 206.723 99.403, 204.552 98.728 C 201.397 97.747, 199.387 95.904, 194.552 89.562 C 187.790 80.693, 179.758 74.560, 171 71.577 C 166.873 70.171, 162.005 69.637, 151.500 69.435 C 143.800 69.288, 136.375 69.379, 135 69.638 M 143.500 98.869 C 134.729 101.170, 127.140 107.300, 123.619 114.930 C 121.970 118.503, 121.509 121.464, 121.505 128.500 C 121.501 136.600, 121.795 138.032, 124.449 142.824 C 135.764 163.250, 167.911 163.232, 177.095 142.794 C 179.010 138.531, 179.468 135.844, 179.444 129 C 179.397 115.632, 174.379 106.826, 163.700 101.368 C 158.516 98.719, 148.701 97.505, 143.500 98.869 M 141 105.592 C 125.391 112.342, 121.545 133.176, 133.649 145.406 C 137.940 149.741, 143.629 151.953, 150.554 151.978 C 164.620 152.029, 175.020 141.451, 174.990 127.124 C 174.970 117.692, 167.770 107.746, 159.078 105.141 C 153.814 103.564, 145.192 103.779, 141 105.592 M 142.207 113.992 C 138.798 115.539, 137.487 116.905, 135.844 120.620 C 130.755 132.125, 137.909 143.489, 150.124 143.305 C 159.438 143.164, 166.003 136.670, 165.996 127.602 C 165.991 120.964, 163.274 116.481, 157.729 113.964 C 152.349 111.521, 147.632 111.530, 142.207 113.992 M 0.195 135.500 C 0.215 137.150, 0.439 137.704, 0.693 136.731 C 0.947 135.758, 0.930 134.408, 0.656 133.731 C 0.382 133.054, 0.175 133.850, 0.195 135.500 M 205.426 138.200 C 204.317 139.465, 202.823 142.300, 202.106 144.500 C 193.878 169.748, 177.252 183, 153.805 183 C 137.066 183, 125.087 178.115, 113.418 166.530 C 109.398 162.539, 104.710 156.575, 102.574 152.734 C 100.504 149.013, 97.905 145.485, 96.799 144.892 C 94.397 143.607, 94.322 143.624, 60.500 153.101 C 24.651 163.147, 23.116 163.691, 22.385 166.603 C 21.564 169.872, 23.350 176.590, 28.002 187.738 C 42.148 221.631, 72.975 247.985, 109.609 257.503 C 139.149 265.178, 170.218 261.494, 197.663 247.061 C 232.504 228.740, 255.658 195.768, 260.017 158.268 C 261.036 149.505, 260.981 147.863, 259.573 145.141 C 258.688 143.429, 256.959 141.810, 255.732 141.542 C 252.796 140.901, 230.392 138.254, 221.500 137.497 C 217.650 137.169, 212.912 136.675, 210.972 136.400 C 208.160 136.001, 207.034 136.366, 205.426 138.200" stroke="none" fill="#d4bc8c" fill-rule="evenodd"/></svg>